<?xml version="1.0" encoding="UTF-8"?>
<svg version="1.1" xmlns="http://www.w3.org/2000/svg" width="512" height="512">
<path d="M0 0 C1.73907406 -0.00378955 3.47814508 -0.00929481 5.21720886 -0.01637268 C9.91142407 -0.03026059 14.60527 -0.01920508 19.29946446 -0.00266147 C24.22751308 0.01125574 29.1555417 0.00472147 34.08360291 0.00120544 C42.35592554 -0.00149117 50.62810263 0.01193249 58.90039062 0.03515625 C68.44635976 0.06177128 77.99208579 0.0635082 87.53807932 0.05176789 C96.74582514 0.04096672 105.95348356 0.04719495 115.16122246 0.06132317 C119.06887328 0.06706181 122.97645969 0.06701707 126.8841114 0.06225777 C131.48976634 0.05746461 136.09515705 0.06768598 140.7007618 0.08921242 C142.38490915 0.0947484 144.06908206 0.09527511 145.75323105 0.09025955 C157.6423607 0.05930817 168.0432519 0.47229007 177.52709961 8.41186523 C184.81407936 15.86604146 187.81073457 24.71277339 187.8374939 35.02703857 C187.84202501 35.75213064 187.84655612 36.47722271 187.85122454 37.22428727 C187.86381318 39.63681425 187.86225178 42.04911388 187.8605957 44.46166992 C187.86658447 46.19852995 187.87339081 47.93538732 187.88095093 49.67224121 C187.89858389 54.37904104 187.9033052 59.0857681 187.9045825 63.79259777 C187.90600633 66.73704721 187.91028034 69.68147829 187.91557693 72.62592316 C187.93406912 82.9090746 187.94224867 93.19217427 187.94067383 103.4753418 C187.93947304 113.04281439 187.9605652 122.61006117 187.99216115 132.17747664 C188.01836232 140.40618245 188.0290395 148.63481469 188.02776301 156.86356187 C188.02725445 161.77170905 188.03287847 166.6796555 188.05411911 171.58776093 C188.07356599 176.20733989 188.07358209 180.826528 188.05908585 185.44612122 C188.05700455 187.13469772 188.06165788 188.82329911 188.07380676 190.51183319 C188.15088796 201.97404068 187.65656336 212.9508939 179.50756836 221.87670898 C178.8359668 222.64756836 178.16436523 223.41842773 177.47241211 224.21264648 C167.64321775 231.96487784 157.64438844 232.22072219 145.68115234 232.1328125 C143.89281507 232.13795904 142.10448287 232.14524583 140.31616211 232.15449524 C135.48759046 232.1729226 130.65957491 232.1601262 125.83102679 232.14040494 C120.76283865 232.12394779 115.69468378 232.13284102 110.6264801 232.13792419 C102.11873554 232.14243686 93.61121142 232.12662562 85.10351562 232.09863281 C75.28483852 232.06657443 65.46655865 232.06660341 55.64785331 232.08384758 C46.17845993 232.09974169 36.70921139 232.09296122 27.2398243 232.07591057 C23.22051166 232.06906033 19.20131583 232.07005161 15.18200493 232.07745552 C10.44495548 232.08514806 5.70835515 232.07289574 0.97138214 232.04560661 C-0.76113744 232.03875314 -2.49369922 232.038592 -4.22621727 232.04582214 C-15.80628726 232.08855973 -26.01254585 231.50414949 -34.89868164 223.20483398 C-41.04685606 216.36655836 -43.73399927 209.09604666 -43.71081543 199.9135437 C-43.71675767 199.16959386 -43.72269992 198.42564402 -43.72882223 197.65915024 C-43.7461068 195.17677336 -43.74920503 192.69459039 -43.75219727 190.2121582 C-43.7614601 188.42780652 -43.77151029 186.64345878 -43.7822876 184.8591156 C-43.80848013 180.01791193 -43.82141497 175.17676367 -43.83030891 170.33550024 C-43.83618023 167.30712616 -43.84439175 164.27876706 -43.85331726 161.25040054 C-43.88065448 151.76449051 -43.89999317 142.27861491 -43.90772104 132.79266822 C-43.91667538 121.86287258 -43.95174389 110.93357806 -44.00972223 100.00393474 C-44.05304039 91.54253943 -44.07313413 83.08128466 -44.07580328 74.61977971 C-44.07789363 69.57230088 -44.08958444 64.52529351 -44.1254425 59.47793198 C-44.1585508 54.72527385 -44.16264549 49.97343783 -44.14516449 45.22070503 C-44.14363141 43.48415604 -44.15220778 41.74756151 -44.17208099 40.01112556 C-44.29657866 28.44744434 -43.28715064 19.1403334 -35.25888824 10.04102898 C-25.42750736 0.09817598 -13.13309555 -0.08200232 0 0 Z " fill="#6AA9FE" transform="translate(50.429931640625,273.498291015625)"/>
<path d="M0 0 C0.74224099 -0.00508782 1.48448198 -0.01017564 2.24921513 -0.01541764 C4.73775618 -0.03112033 7.22626824 -0.03966151 9.71484375 -0.04811096 C11.49889814 -0.0576514 13.28295069 -0.06754265 15.06700134 -0.07775879 C20.92875985 -0.10912921 26.79053247 -0.12941254 32.65234375 -0.14796448 C33.65062824 -0.1512618 34.64891273 -0.15455912 35.67744827 -0.15795636 C45.0982307 -0.18874232 54.5190164 -0.21544146 63.93983459 -0.23237514 C75.97457196 -0.25426316 88.00886216 -0.29619594 100.04342079 -0.36581272 C108.51325539 -0.41313732 116.98296973 -0.43732018 125.45293236 -0.44457203 C130.50716784 -0.44951644 135.56089917 -0.46448147 140.61499023 -0.50431633 C145.37580429 -0.54134456 150.13582963 -0.54953957 154.89676094 -0.5363102 C156.63654304 -0.53636388 158.37636154 -0.54655184 160.11601067 -0.56806183 C171.69300998 -0.70346084 181.00212511 0.29271758 190.11289978 8.33173466 C198.01941675 16.14889388 200.05767386 25.58806785 200.17842972 36.41023326 C200.18352765 38.80916725 200.1690167 41.20754366 200.15405273 43.60643005 C200.15784225 45.34712662 200.16334748 47.08782017 200.17042542 48.82850647 C200.18431278 53.52678652 200.17325867 58.22469762 200.1567142 62.92295694 C200.1427987 67.85414276 200.14933099 72.78530856 200.15284729 77.71650696 C200.15554378 85.99302574 200.14212041 94.26939903 200.11889648 102.54588318 C200.09227273 112.09982465 200.09054736 121.65352325 200.10228485 131.20748913 C200.11308105 140.42057774 200.10686223 149.63357893 200.09272957 158.84666061 C200.08698752 162.75792902 200.08703835 166.66913307 200.09179497 170.58040237 C200.0965836 175.18851661 200.08638526 179.7963664 200.06484032 184.40443039 C200.05929856 186.09061033 200.05878303 187.77681583 200.06379318 189.46299744 C200.09598858 201.85686791 199.1245731 212.35942277 190.65234375 222.16062927 C180.1036851 231.27896133 168.68189698 231.60395241 155.46533203 231.56468201 C153.72817548 231.57039131 151.99102268 231.57735773 150.25387573 231.58547974 C145.55541836 231.60336533 140.85714823 231.60225132 136.15866709 231.59653735 C132.22744949 231.59343854 128.29626749 231.59954571 124.36505497 231.6055761 C115.0859503 231.6196049 105.80693774 231.61807401 96.52783203 231.60667419 C86.97507502 231.59519707 77.42259889 231.60926561 67.86987889 231.63607067 C59.64961596 231.65826788 51.42944095 231.66485592 43.2091502 231.65899426 C38.30775211 231.6556328 33.40653399 231.65798557 28.50516129 231.67524529 C23.89374571 231.69077635 19.28274433 231.6866909 14.67134476 231.66794014 C12.98599829 231.66427112 11.30062071 231.66731312 9.61530304 231.67782593 C-1.83466947 231.7437566 -12.80786414 231.23706064 -21.72265625 223.09812927 C-22.49351563 222.42652771 -23.264375 221.75492615 -24.05859375 221.06297302 C-31.8108251 211.23377866 -32.06666946 201.23494935 -31.97875977 189.27171326 C-31.9839063 187.48337598 -31.9911931 185.69504379 -32.0004425 183.90672302 C-32.01886986 179.07815137 -32.00607346 174.25013582 -31.98635221 169.42158771 C-31.96989506 164.35339956 -31.97878828 159.28524469 -31.98387146 154.21704102 C-31.98838413 145.70929645 -31.97257288 137.20177234 -31.94458008 128.69407654 C-31.9125217 118.87539943 -31.91255068 109.05711957 -31.92979485 99.23841423 C-31.94568896 89.76902085 -31.93890848 80.2997723 -31.92185783 70.83038521 C-31.91500759 66.81107258 -31.91599888 62.79187675 -31.92340279 58.77256584 C-31.93109533 54.03551639 -31.91884301 49.29891607 -31.89155388 44.56194305 C-31.8847004 42.82942347 -31.88453927 41.0968617 -31.89176941 39.36434364 C-31.93405338 27.90718382 -31.39020447 17.58844903 -23.19140625 8.76219177 C-15.96922324 2.48868534 -9.40955911 0.01603874 0 0 Z " fill="#FF641A" transform="translate(38.34765625,6.8393707275390625)"/>
<path d="M0 0 C1.73715655 -0.0057093 3.47430935 -0.01267572 5.2114563 -0.02079773 C9.90991367 -0.03868333 14.6081838 -0.03756932 19.30666494 -0.03185534 C23.23788255 -0.02875654 27.16906454 -0.0348637 31.10027707 -0.04089409 C40.37938173 -0.05492289 49.65839429 -0.053392 58.9375 -0.04199219 C68.49025701 -0.03051506 78.04273314 -0.0445836 87.59545314 -0.07138866 C95.81571607 -0.09358587 104.03589109 -0.10017391 112.25618184 -0.09431225 C117.15757992 -0.09095079 122.05879804 -0.09330356 126.96017075 -0.11056328 C131.57158632 -0.12609434 136.1825877 -0.1220089 140.79398727 -0.10325813 C142.47933374 -0.09958912 144.16471132 -0.10263111 145.85002899 -0.11314392 C157.3000015 -0.17907459 168.27319617 0.32762137 177.18798828 8.46655273 C177.95884766 9.1381543 178.72970703 9.80975586 179.52392578 10.50170898 C187.27615713 20.33090335 187.53200149 30.32973265 187.4440918 42.29296875 C187.44923833 44.08130603 187.45652513 45.86963822 187.46577454 47.65795898 C187.48420189 52.48653064 187.47140549 57.31454618 187.45168424 62.1430943 C187.43522709 67.21128244 187.44412031 72.27943732 187.44920349 77.34764099 C187.45371616 85.85538556 187.43790491 94.36290967 187.40991211 102.87060547 C187.37785373 112.68928257 187.37788271 122.50756244 187.39512688 132.32626778 C187.41102099 141.79566116 187.40424051 151.26490971 187.38718987 160.7342968 C187.38033962 164.75360943 187.38133091 168.77280526 187.38873482 172.79211617 C187.39642736 177.52916562 187.38417504 182.26576594 187.35688591 187.00273895 C187.35003243 188.73525854 187.3498713 190.46782031 187.35710144 192.20033836 C187.39983903 203.78040835 186.81542878 213.98666694 178.51611328 222.87280273 C171.67783765 229.02097715 164.40732595 231.70812037 155.224823 231.68493652 C154.48087316 231.69087877 153.73692332 231.69682101 152.97042954 231.70294333 C150.48805266 231.72022789 148.00586969 231.72332612 145.5234375 231.72631836 C143.73908582 231.73558119 141.95473808 231.74563139 140.1703949 231.75640869 C135.32919123 231.78260122 130.48804296 231.79553606 125.64677954 231.80443001 C122.61840546 231.81030132 119.59004635 231.81851285 116.56167984 231.82743835 C107.07576981 231.85477557 97.58989421 231.87411426 88.10394752 231.88184214 C77.17415188 231.89079647 66.24485736 231.92586498 55.31521404 231.98384333 C46.85381873 232.02716149 38.39256396 232.04725523 29.931059 232.04992437 C24.88358018 232.05201473 19.83657281 232.06370553 14.78921127 232.0995636 C10.03655315 232.13267189 5.28471712 232.13676659 0.53198433 232.11928558 C-1.20456466 232.1177525 -2.94115919 232.12632887 -4.67759514 232.14620209 C-16.24127636 232.27069976 -25.5483873 231.26127174 -34.64769173 223.23300934 C-42.55389139 215.41544829 -44.59233978 205.97679806 -44.71309769 195.15444875 C-44.71819562 192.75551476 -44.70368467 190.35713834 -44.6887207 187.95825195 C-44.69251022 186.21755538 -44.69801545 184.47686184 -44.70509338 182.73617554 C-44.71898075 178.03789548 -44.70792664 173.33998439 -44.69138217 168.64172506 C-44.67746667 163.71053925 -44.68399896 158.77937345 -44.68751526 153.84817505 C-44.69021175 145.57165627 -44.67678838 137.29528298 -44.65356445 129.01879883 C-44.6269407 119.46485735 -44.62521533 109.91115875 -44.63695282 100.35719287 C-44.64774902 91.14410427 -44.6415302 81.93110307 -44.62739754 72.71802139 C-44.62165549 68.80675299 -44.62170632 64.89554893 -44.62646294 60.98427963 C-44.63125157 56.37616539 -44.62105323 51.7683156 -44.59950829 47.16025162 C-44.59396652 45.47407167 -44.593451 43.78786618 -44.59846115 42.10168457 C-44.63065655 29.7078141 -43.65924107 19.20525923 -35.18701172 9.40405273 C-24.63835307 0.28572068 -13.21656495 -0.0392704 0 0 Z " fill="#97DE3D" transform="translate(318.18701171875,273.595947265625)"/>
<path d="M0 0 C1.78833728 -0.00514654 3.57666947 -0.01243333 5.36499023 -0.02168274 C10.19356189 -0.0401101 15.02157743 -0.0273137 19.85012555 -0.00759244 C24.91831369 0.00886471 29.98646857 -0.00002852 35.05467224 -0.00511169 C43.56241681 -0.00962436 52.06994092 0.00618688 60.57763672 0.03417969 C70.39631382 0.06623807 80.21459369 0.06620909 90.03329903 0.04896492 C99.50269241 0.03307081 108.97194096 0.03985128 118.44132805 0.05690193 C122.46064068 0.06375217 126.47983651 0.06276089 130.49914742 0.05535698 C135.23619687 0.04766444 139.97279719 0.05991676 144.7097702 0.08720589 C146.44228979 0.09405936 148.17485156 0.0942205 149.90736961 0.08699036 C161.4874396 0.04425277 171.69369819 0.62866301 180.57983398 8.92797852 C186.7280084 15.76625414 189.41515162 23.03676584 189.39196777 32.2192688 C189.39791002 32.96321864 189.40385226 33.70716848 189.40997458 34.47366226 C189.42725914 36.95603914 189.43035737 39.43822211 189.43334961 41.9206543 C189.44261244 43.70500598 189.45266264 45.48935372 189.46343994 47.2736969 C189.48963247 52.11490057 189.50256731 56.95604883 189.51146126 61.79731226 C189.51733257 64.82568634 189.5255441 67.85404544 189.5344696 70.88241196 C189.56180682 80.36832199 189.58114551 89.85419759 189.58887339 99.34014428 C189.59782772 110.26993992 189.63289623 121.19923444 189.69087458 132.12887776 C189.73419274 140.59027307 189.75428648 149.05152784 189.75695562 157.51303279 C189.75904598 162.56051162 189.77073678 167.60751899 189.80659485 172.65488052 C189.83970314 177.40753865 189.84379784 182.15937467 189.82631683 186.91210747 C189.82478375 188.64865646 189.83336012 190.38525099 189.85323334 192.12168694 C189.97773101 203.68536816 188.96830299 212.9924791 180.94004059 222.09178352 C173.12247954 229.99798319 163.68382931 232.03643157 152.86148 232.15718949 C150.46254601 232.16228741 148.06416959 232.14777647 145.6652832 232.1328125 C143.92458663 232.13660201 142.18389309 232.14210724 140.44320679 232.14918518 C135.74492673 232.16307254 131.04701564 232.15201844 126.34875631 232.13547397 C121.4175705 232.12155847 116.4864047 232.12809075 111.5552063 232.13160706 C103.27868752 232.13430355 95.00231423 232.12088018 86.72583008 232.09765625 C77.1718886 232.0710325 67.61819 232.06930712 58.06422412 232.08104461 C48.85113552 232.09184081 39.63813432 232.085622 30.42505264 232.07148933 C26.51378424 232.06574729 22.60258018 232.06579811 18.69131088 232.07055473 C14.08319664 232.07534336 9.47534685 232.06514503 4.86728287 232.04360008 C3.18110292 232.03805832 1.49489743 232.03754279 -0.19128418 232.04255295 C-12.58515465 232.07474834 -23.08770952 231.10333286 -32.88891602 222.63110352 C-42.00724807 212.08244486 -42.33223915 200.66065675 -42.29296875 187.4440918 C-42.29867805 185.70693525 -42.30564447 183.96978244 -42.31376648 182.2326355 C-42.33165208 177.53417813 -42.33053807 172.83590799 -42.32482409 168.13742685 C-42.32172529 164.20620925 -42.32783245 160.27502725 -42.33386284 156.34381473 C-42.34789164 147.06471007 -42.34636075 137.7856975 -42.33496094 128.5065918 C-42.32348381 118.95383478 -42.33755235 109.40135866 -42.36435741 99.84863865 C-42.38655462 91.62837573 -42.39314266 83.40820071 -42.387281 75.18790996 C-42.38391954 70.28651187 -42.38627231 65.38529376 -42.40353203 60.48392105 C-42.41906309 55.87250548 -42.41497765 51.2615041 -42.39622688 46.65010452 C-42.39255787 44.96475806 -42.39559986 43.27938048 -42.40611267 41.59406281 C-42.47204334 30.14409029 -41.96534738 19.17089563 -33.82641602 10.25610352 C-33.15481445 9.48524414 -32.48321289 8.71438477 -31.79125977 7.92016602 C-21.9620654 0.16793466 -11.9632361 -0.08790969 0 0 Z " fill="#FED843" transform="translate(315.888916015625,6.368896484375)"/>
<path d="M0 0 C88.33333333 0 88.33333333 0 100.265625 11.109375 C109.60541297 21.14099912 112.37390573 31.05667897 112.37060547 44.61083984 C112.37494284 46.5988008 112.41186496 48.58660404 112.44921875 50.57421875 C112.47756376 60.01310868 111.39048827 68.54013449 106.32958984 76.68994141 C104.69713901 78.91213681 104.69713901 78.91213681 105.5625 81.3125 C106.036875 82.199375 106.51125 83.08625 107 84 C107.69354556 85.3301987 108.38060696 86.66379047 109.0625 88 C109.40410156 88.639375 109.74570313 89.27875 110.09765625 89.9375 C112.9759885 96.51654515 112.25972599 104.03652064 112.3125 111.0625 C112.35600586 112.95258789 112.35600586 112.95258789 112.40039062 114.88085938 C112.48021852 126.76293477 110.25634935 137.13275485 102 146 C101.36320312 146.68964844 100.72640625 147.37929688 100.0703125 148.08984375 C76.2397772 171.52756803 21.40712981 160 0 160 C0 107.2 0 54.4 0 0 Z " fill="#FDF4F5" transform="translate(66,310)"/>
<path d="M0 0 C2.18603259 -0.00434311 4.36999151 -0.04064018 6.55566406 -0.07861328 C22.18044345 -0.20429451 34.29787302 3.79331966 45.77441406 14.62060547 C56.47646582 25.71556472 59.25917151 37.41986996 59.20043945 52.43676758 C59.20058548 53.42290039 59.20073151 54.4090332 59.20088196 55.42504883 C59.20018847 58.66603845 59.19242252 61.90696971 59.18457031 65.14794922 C59.18270413 67.40238921 59.18128117 69.6568296 59.18028259 71.91127014 C59.17647318 77.83119841 59.16665638 83.75110197 59.15557861 89.67102051 C59.14533057 95.71736314 59.14077771 101.76370978 59.13574219 107.81005859 C59.12503267 119.6635868 59.10744866 131.51709021 59.08691406 143.37060547 C48.52691406 143.37060547 37.96691406 143.37060547 27.08691406 143.37060547 C27.08691406 132.15060547 27.08691406 120.93060547 27.08691406 109.37060547 C11.24691406 109.37060547 -4.59308594 109.37060547 -20.91308594 109.37060547 C-20.91308594 120.59060547 -20.91308594 131.81060547 -20.91308594 143.37060547 C-31.47308594 143.37060547 -42.03308594 143.37060547 -52.91308594 143.37060547 C-52.98097769 130.24417039 -53.03596908 117.11785274 -53.06852245 103.99128151 C-53.08414977 97.89548827 -53.10533456 91.79982184 -53.1394043 85.70410156 C-53.17210218 79.81670263 -53.18996101 73.92942535 -53.19771767 68.0419426 C-53.20324245 65.80057232 -53.21403089 63.55920838 -53.23027611 61.31789017 C-53.25218878 58.16816286 -53.25504706 55.01893241 -53.25366211 51.86914062 C-53.26444794 50.95131805 -53.27523376 50.03349548 -53.28634644 49.08786011 C-53.22020508 35.10271822 -47.39316008 23.04633866 -37.86621094 12.99169922 C-26.68063162 3.06375778 -14.69535408 -0.00325839 0 0 Z " fill="#FFF3F3" transform="translate(118.9130859375,42.62939453125)"/>
<path d="M0 0 C2.48956895 0.02009808 4.97915358 0.03834299 7.46875 0.0546875 C13.52154342 0.09498573 19.57212554 0.17332742 25.625 0.25 C25.625 11.14 25.625 22.03 25.625 33.25 C21.86867188 33.27578125 18.11234375 33.3015625 14.2421875 33.328125 C10.59823153 33.36655353 6.95441666 33.41171142 3.31054688 33.45751953 C0.78099317 33.48571932 -1.74864849 33.50693873 -4.27832031 33.52099609 C-7.91777546 33.54243829 -11.55617415 33.5890986 -15.1953125 33.640625 C-16.88782639 33.64246796 -16.88782639 33.64246796 -18.61453247 33.64434814 C-24.64790399 33.75651538 -28.77281331 33.92862164 -33.375 38.25 C-36.89565464 42.7338464 -37.87781293 45.64348584 -37.89257812 51.32177734 C-37.8995874 52.00230667 -37.90659668 52.682836 -37.91381836 53.38398743 C-37.93132472 55.61839445 -37.91980072 57.85151911 -37.90625 60.0859375 C-37.90894769 61.65003704 -37.91283242 63.21413493 -37.91784668 64.77822876 C-37.92373225 68.05153416 -37.91521198 71.32440189 -37.89648438 74.59765625 C-37.87373266 78.77615035 -37.88679901 82.95361447 -37.91077423 87.13207054 C-37.92529039 90.3613549 -37.92059914 93.59039875 -37.91026306 96.8196907 C-37.90760983 98.35934193 -37.91081576 99.89901557 -37.92018127 101.43864059 C-38.31782019 113.10800613 -38.31782019 113.10800613 -33.375 123.25 C-27.49863782 128.0782601 -21.70092408 127.8511367 -14.31640625 127.859375 C-13.17211655 127.87591125 -12.02782684 127.89244751 -10.84886169 127.90948486 C-7.21168605 127.95787886 -3.5749283 127.97931776 0.0625 128 C2.53582822 128.02816671 5.00913704 128.05809511 7.48242188 128.08984375 C13.5301386 128.16693642 19.57654525 128.20753981 25.625 128.25 C25.625 138.81 25.625 149.37 25.625 160.25 C17.97491712 160.31908102 10.32592815 160.37875466 2.67578125 160.41479492 C0.07645997 160.42982831 -2.52283617 160.45026046 -5.12207031 160.47631836 C-8.87050605 160.51294101 -12.61860472 160.52978152 -16.3671875 160.54296875 C-18.09435501 160.56619453 -18.09435501 160.56619453 -19.85641479 160.58988953 C-26.87904628 160.59133564 -32.79077416 159.70759561 -39.375 157.25 C-40.29152344 156.90839844 -41.20804687 156.56679687 -42.15234375 156.21484375 C-54.29393152 150.44045391 -63.47769057 140.78207365 -68.15638733 128.13838196 C-70.91203327 119.34751248 -70.8301997 110.67648615 -70.80859375 101.5703125 C-70.81316643 99.86839594 -70.81847519 98.16648121 -70.82447815 96.46456909 C-70.83336655 92.91266335 -70.83103562 89.36098296 -70.82104492 85.80908203 C-70.80956691 81.29162125 -70.82977053 76.77494358 -70.85896206 72.25758553 C-70.87744392 68.74676701 -70.87700783 65.23613198 -70.87132454 61.72527695 C-70.87117275 60.06135841 -70.87709705 58.39742628 -70.88961601 56.73355484 C-71.00051815 39.58015446 -67.54976182 26.81062929 -55.5625 14 C-39.61418668 -1.12497783 -20.61277424 -0.29032076 0 0 Z " fill="#FEF4F2" transform="translate(404.375,41.75)"/>
<path d="M0 0 C4.27845757 0.13021393 6.45716184 3.1965097 9.25 6.125 C13.17611651 10.20728767 17.16897674 13.96406795 21.63671875 17.46484375 C23 19 23 19 23 23 C21.72167969 24.80834961 21.72167969 24.80834961 19.921875 26.65234375 C19.26171387 27.3395752 18.60155273 28.02680664 17.92138672 28.73486328 C17.2048291 29.4617334 16.48827148 30.18860352 15.75 30.9375 C14.26768089 32.47473192 12.78591436 34.01249685 11.3046875 35.55078125 C10.56959961 36.3082666 9.83451172 37.06575195 9.07714844 37.84619141 C6.29593398 40.73005059 3.57964815 43.66952505 0.875 46.625 C-3.39558095 51.26987455 -7.69103861 55.8907135 -12 60.5 C-16.34880174 65.15256524 -20.68513151 69.8159449 -25 74.5 C-29.90659139 79.8264067 -34.84394139 85.12343075 -39.7890625 90.4140625 C-43.54029845 94.42970274 -47.27645474 98.4586823 -51 102.5 C-52.46717498 104.08977046 -53.93468556 105.67923032 -55.40234375 107.26855469 C-56.5412153 108.50279629 -57.67913308 109.73791825 -58.81640625 110.97363281 C-60.70771933 113.02708618 -62.60347633 115.07635932 -64.5 117.125 C-65.0878125 117.76501953 -65.675625 118.40503906 -66.28125 119.06445312 C-69.01881845 122.01430987 -71.63769326 124.74198028 -75 127 C-75.4846875 126.50371094 -75.969375 126.00742187 -76.46875 125.49609375 C-79.79901386 122.12099941 -83.13766154 118.82352327 -86.75 115.75 C-90.3451674 112.66438388 -93.67337787 109.36802377 -97 106 C-100.24450984 102.71531047 -103.47922436 99.49265929 -107 96.5 C-111.08874765 93.0245645 -114.80816684 89.21899763 -118.57592773 85.40454102 C-121.89934513 82.05591837 -125.32389295 78.91312448 -128.921875 75.859375 C-132.64198289 72.53085741 -136.09319995 68.92303249 -139.58203125 65.35546875 C-141.9623308 62.89275734 -141.9623308 62.89275734 -145 61 C-143.66000502 57.993182 -142.20154709 56.00237391 -139.8125 53.75 C-136.56332956 50.60215504 -133.596569 47.29235094 -130.64453125 43.8671875 C-128.52869105 41.46487962 -126.2975339 39.22791166 -124 37 C-119.65076722 38.65735327 -116.90865776 41.91154946 -113.75 45.1875 C-109.64127226 49.37842513 -105.50174664 53.39725285 -101.0234375 57.1953125 C-98.40982741 59.52637015 -95.95842899 62.00813437 -93.5 64.5 C-89.68076716 68.36166876 -85.79922534 72.05150395 -81.65625 75.5625 C-80.02723284 76.97636395 -78.50628283 78.45697856 -77 80 C-73.31005209 78.45615972 -70.9760549 76.21186057 -68.1875 73.375 C-67.37667969 72.55773437 -66.56585938 71.74046875 -65.73046875 70.8984375 C-63.65108879 68.69114146 -61.64318913 66.46391624 -59.65625 64.17578125 C-55.98377413 59.94852817 -52.16640278 55.87405858 -48.3125 51.8125 C-43.47257543 46.69148278 -38.64528055 41.56100543 -33.875 36.375 C-29.02043061 31.09793536 -24.13363196 25.85188409 -19.23681641 20.61401367 C-14.71419253 15.77320575 -10.21480887 10.91144384 -5.73046875 6.03515625 C-3.84898116 3.99120037 -1.96466696 1.96466696 0 0 Z " fill="#FEF4F3" transform="translate(452,329)"/>
<path d="M0 0 C1.67255859 -0.01063477 1.67255859 -0.01063477 3.37890625 -0.02148438 C9.9754177 0.0296209 15.10053083 0.26412379 20.14453125 4.97265625 C24.02713928 10.04991291 24.64200204 12.79555759 24.59765625 19.0703125 C24.59664917 19.73667725 24.59564209 20.40304199 24.59460449 21.08959961 C24.58936955 23.58058389 24.57540829 26.07154366 24.5625 28.5625 C24.541875 34.13125 24.52125 39.7 24.5 45.4375 C8.66 45.4375 -7.18 45.4375 -23.5 45.4375 C-23.603125 40.1575 -23.70625 34.8775 -23.8125 29.4375 C-23.85802002 27.7875 -23.90354004 26.1375 -23.95043945 24.4375 C-24.17011488 11.11429953 -24.17011488 11.11429953 -19.9519043 5.88500977 C-13.74958718 -0.29853458 -8.40333479 -0.15057999 0 0 Z " fill="#FF651C" transform="translate(121.5,74.5625)"/>
<path d="M0 0 C5.90839756 -0.04592019 11.81617553 -0.08574329 17.72460938 -0.10986328 C19.73439635 -0.1199187 21.7441687 -0.13356485 23.75390625 -0.15087891 C26.64326588 -0.17514724 29.53243202 -0.18648771 32.421875 -0.1953125 C33.31992859 -0.20563507 34.21798218 -0.21595764 35.14324951 -0.22659302 C35.98381897 -0.22674408 36.82438843 -0.22689514 37.69042969 -0.22705078 C38.42767273 -0.231492 39.16491577 -0.23593323 39.92449951 -0.24050903 C42.37465993 0.0434156 43.91791235 0.68351768 46 2 C48.89740017 6.34610025 48.36809044 10.26192431 48.375 15.375 C48.39949219 16.32117188 48.42398438 17.26734375 48.44921875 18.2421875 C48.46786268 22.66701299 48.45183996 25.2618088 46.1015625 29.1015625 C43.21341428 31.71055884 41.7062811 32.12486911 37.91748047 32.11352539 C36.65639969 32.11341209 36.65639969 32.11341209 35.36984253 32.11329651 C34.00727829 32.10555458 34.00727829 32.10555458 32.6171875 32.09765625 C31.68778351 32.0962413 30.75837952 32.09482635 29.80081177 32.09336853 C26.82550876 32.08776053 23.85028036 32.07520668 20.875 32.0625 C18.86067817 32.05748603 16.84635516 32.05292295 14.83203125 32.04882812 C9.8879688 32.03863838 4.94406815 32.01906453 0 32 C0 21.44 0 10.88 0 0 Z " fill="#6CAAFE" transform="translate(98,342)"/>
<path d="M0 0 C6.03350196 -0.11489953 12.06319872 -0.2144029 18.09692383 -0.2746582 C20.14848706 -0.29977806 22.19996101 -0.33388036 24.2512207 -0.37719727 C27.20286091 -0.43796002 30.1533165 -0.46623492 33.10546875 -0.48828125 C34.02023483 -0.51408768 34.93500092 -0.5398941 35.87748718 -0.56648254 C40.33000695 -0.56843663 42.3772604 -0.45009403 46.0769043 2.22387695 C48.08857092 5.12785832 48.64021807 6.43177629 48.6640625 9.90625 C48.67373047 11.26943359 48.67373047 11.26943359 48.68359375 12.66015625 C48.66425781 13.59730469 48.64492187 14.53445313 48.625 15.5 C48.64433594 16.43714844 48.66367188 17.37429688 48.68359375 18.33984375 C48.67714844 19.24863281 48.67070312 20.15742188 48.6640625 21.09375 C48.65560303 22.32641602 48.65560303 22.32641602 48.64697266 23.58398438 C47.64151592 27.33870132 46.14230894 28.7288509 43 31 C39.68944812 31.67003589 36.4714359 31.58323841 33.10546875 31.48828125 C32.15811356 31.48120651 31.21075836 31.47413177 30.23469543 31.46684265 C27.21814979 31.43892334 24.2034816 31.37618915 21.1875 31.3125 C19.13869874 31.28741396 17.0898683 31.26460133 15.04101562 31.24414062 C10.02604414 31.19336125 5.01511534 31.09550579 0 31 C0 20.77 0 10.54 0 0 Z " fill="#6BA9FE" transform="translate(98,406)"/>
</svg>
